<mxfile host="65bd71144e">
    <diagram id="oHk2lDc-SwemrZXDmr6H" name="Page-1">
        <mxGraphModel dx="482" dy="526" grid="1" gridSize="10" guides="1" tooltips="1" connect="1" arrows="1" fold="1" page="1" pageScale="1" pageWidth="850" pageHeight="1100" math="0" shadow="0">
            <root>
                <mxCell id="0"/>
                <mxCell id="1" parent="0"/>
                <mxCell id="2" value="USERNAME PASSWORD EMAIL:&amp;nbsp; LOGIN(submit)" style="shape=ext;double=1;rounded=0;whiteSpace=wrap;html=1;" vertex="1" parent="1">
                    <mxGeometry x="80" y="220" width="330" height="90" as="geometry"/>
                </mxCell>
                <mxCell id="3" value="Welcome to &quot;...&quot;" style="text;strokeColor=none;fillColor=none;html=1;fontSize=24;fontStyle=1;verticalAlign=middle;align=center;" vertex="1" parent="1">
                    <mxGeometry x="110" y="70" width="270" height="50" as="geometry"/>
                </mxCell>
                <mxCell id="4" value="Sign Up" style="shape=ext;double=1;rounded=0;whiteSpace=wrap;html=1;" vertex="1" parent="1">
                    <mxGeometry x="185" y="320" width="120" height="60" as="geometry"/>
                </mxCell>
            </root>
        </mxGraphModel>
    </diagram>
</mxfile>